<svg xmlns="http://www.w3.org/2000/svg" width="1100" height="744" viewBox="0 0 1100 744" preserveAspectRatio="none">
            <!-- https://grabient.com/HQNgTAHANMAsEFYZjLKBaYBmAjNTYAnCDLIfnDmBsGCITDgOwk7Z00KHXpsAMfLEA?style=linearSwatches&angle=210&steps=15 -->
            <defs>
              <clipPath id="bounds">
                <rect x="0" y="0" width="1100" height="744" />
              </clipPath>
            </defs>
            <g clip-path="url(#bounds)"><path d="M 273.548,-477.152 L 1423.614,186.838 L 1383.803,255.793 L 233.737,-408.198 Z" fill="#c5bbb8" fill-opacity="1.000" /><path d="M 233.737,-408.198 L 1383.803,255.793 L 1343.992,324.747 L 193.926,-339.244 Z" fill="#b8b5b8" fill-opacity="1.000" /><path d="M 193.926,-339.244 L 1343.992,324.747 L 1304.181,393.701 L 154.115,-270.290 Z" fill="#a9afb7" fill-opacity="1.000" /><path d="M 154.115,-270.290 L 1304.181,393.701 L 1264.371,462.656 L 114.305,-201.335 Z" fill="#9aa8b5" fill-opacity="1.000" /><path d="M 114.305,-201.335 L 1264.371,462.656 L 1224.560,531.610 L 74.494,-132.381 Z" fill="#8ba1b3" fill-opacity="1.000" /><path d="M 74.494,-132.381 L 1224.560,531.610 L 1184.749,600.564 L 34.683,-63.427 Z" fill="#7d98af" fill-opacity="1.000" /><path d="M 34.683,-63.427 L 1184.749,600.564 L 1144.938,669.518 L -5.128,5.527 Z" fill="#7090ab" fill-opacity="1.000" /><path d="M -5.128,5.527 L 1144.938,669.518 L 1105.128,738.473 L -44.938,74.482 Z" fill="#6587a6" fill-opacity="1.000" /><path d="M -44.938,74.482 L 1105.128,738.473 L 1065.317,807.427 L -84.749,143.436 Z" fill="#5c7ea1" fill-opacity="1.000" /><path d="M -84.749,143.436 L 1065.317,807.427 L 1025.506,876.381 L -124.560,212.390 Z" fill="#55759b" fill-opacity="1.000" /><path d="M -124.560,212.390 L 1025.506,876.381 L 985.695,945.335 L -164.371,281.344 Z" fill="#516c94" fill-opacity="1.000" /><path d="M -164.371,281.344 L 985.695,945.335 L 945.885,1014.290 L -204.181,350.299 Z" fill="#4f638d" fill-opacity="1.000" /><path d="M -204.181,350.299 L 945.885,1014.290 L 906.074,1083.244 L -243.992,419.253 Z" fill="#505a85" fill-opacity="1.000" /><path d="M -243.992,419.253 L 906.074,1083.244 L 866.263,1152.198 L -283.803,488.207 Z" fill="#54537d" fill-opacity="1.000" /><path d="M -283.803,488.207 L 866.263,1152.198 L 826.452,1221.152 L -323.614,557.162 Z" fill="#5b4b74" fill-opacity="1.000" /></g>
          </svg>